<?xml version="1.0" encoding="utf-8"?>
<!-- Generator: Adobe Illustrator 24.0.1, SVG Export Plug-In . SVG Version: 6.00 Build 0)  -->
<svg version="1.1" id="Layer_1" xmlns="http://www.w3.org/2000/svg" xmlns:xlink="http://www.w3.org/1999/xlink" x="0px" y="0px"
	 viewBox="0 0 1920.2 1075.6" style="enable-background:new 0 0 1920.2 1075.6;" xml:space="preserve">
<style type="text/css">
	.st0{opacity:0.11;fill:#0F605C;enable-background:new    ;}
	.st1{fill:#0F605C;}
	.st2{clip-path:url(#SVGID_2_);}
	.st3{opacity:0.14;fill:#0F605C;stroke:#FFFFFF;stroke-width:128;enable-background:new    ;}
</style>
<g id="Group_112" transform="translate(0.089 0.042)">
	<path id="Path_195" class="st0" d="M-0.1,607.4c0,0,100.4,239.9,401.2,191.5s442.1,9.6,537.6,114.9s352.1,94.3,581,52.4
		s363.2,41.8,400.4,109.4c0,0-0.4-1075.6-0.4-1075.6L0,0L-0.1,607.4z"/>
	<path id="Path_194" class="st1" d="M0,607.5c0,0,95.3,204.2,401.2,161.1c305.9-43,419.7-32.1,544.2,96.9s344,107.5,572.9,67.1
		s360.2,68.2,401.8,143c0-2.4-0.1-1075.6-0.1-1075.6L0,0L0,607.5z"/>
	<g>
		<defs>
			<path id="SVGID_1_" d="M0,607.5c0,0,95.3,204.2,401.2,161.1c305.9-43,419.7-32.1,544.2,96.9s344,107.5,572.9,67.1
				s360.2,68.2,401.8,143c0-2.4-0.1-1075.6-0.1-1075.6L0,0L0,607.5z"/>
		</defs>
		<use xlink:href="#SVGID_1_"  style="overflow:visible;fill:#0F605C;"/>
		<clipPath id="SVGID_2_">
			<use xlink:href="#SVGID_1_"  style="overflow:visible;"/>
		</clipPath>
		<g id="Mask_Group_6" class="st2">
			<path id="Path_4" class="st3" d="M25.6,687.7c0,0,174.2-392,817.4-255s869.4,77.5,1056.2-464"/>
		</g>
	</g>
</g>
</svg>
